<svg width="50" height="50" viewBox="0 0 50 50" fill="none" xmlns="http://www.w3.org/2000/svg">
<circle cx="25" cy="25" r="25" fill="url(#paint0_linear_3984_45695)"/>
<path d="M25.0001 26.369C28.2804 26.369 31.2635 27.3191 33.4581 28.6566C34.5534 29.3275 35.4898 30.1147 36.1661 30.9703C36.8314 31.8137 37.3216 32.8213 37.3216 33.8987C37.3216 35.0556 36.7589 35.9674 35.9484 36.6177C35.1817 37.2337 34.17 37.6417 33.0953 37.9265C30.935 38.4974 28.0517 38.6904 25.0001 38.6904C21.9485 38.6904 19.0653 38.4987 16.905 37.9265C15.8303 37.6417 14.8185 37.2337 14.0519 36.6177C13.24 35.966 12.6787 35.0556 12.6787 33.8987C12.6787 32.8213 13.1688 31.8137 13.8342 30.9703C14.5105 30.1147 15.4456 29.3275 16.5422 28.6566C18.7367 27.3191 21.7213 26.369 25.0001 26.369ZM25.0001 11.3094C26.8156 11.3094 28.5567 12.0306 29.8405 13.3144C31.1242 14.5981 31.8454 16.3392 31.8454 18.1547C31.8454 19.9702 31.1242 21.7113 29.8405 22.995C28.5567 24.2787 26.8156 24.9999 25.0001 24.9999C23.1847 24.9999 21.4436 24.2787 20.1598 22.995C18.8761 21.7113 18.1549 19.9702 18.1549 18.1547C18.1549 16.3392 18.8761 14.5981 20.1598 13.3144C21.4436 12.0306 23.1847 11.3094 25.0001 11.3094Z" fill="white"/>
<defs>
<linearGradient id="paint0_linear_3984_45695" x1="55.2083" y1="8.33334" x2="-54.5286" y2="-1.49077" gradientUnits="userSpaceOnUse">
<stop stop-color="#355CCA"/>
<stop offset="0.721138" stop-color="#E31F1F"/>
<stop offset="0.982292" stop-color="#E31F1F" stop-opacity="0.69"/>
</linearGradient>
</defs>
</svg>
