<svg width="24" height="27" viewBox="0 0 24 27" fill="none" xmlns="http://www.w3.org/2000/svg">
<path d="M12 18.0333C13.6569 18.0333 15 16.6018 15 14.8359C15 13.07 13.6569 11.6384 12 11.6384C10.3431 11.6384 9 13.07 9 14.8359C9 16.6018 10.3431 18.0333 12 18.0333Z" stroke="#D2DAFF" stroke-width="2" stroke-linecap="round" stroke-linejoin="round"/>
<path d="M5 8.441H7C7.53043 8.441 8.03914 8.21641 8.41421 7.81666C8.78929 7.4169 9 6.87471 9 6.30936C9 6.02669 9.10536 5.7556 9.29289 5.55572C9.48043 5.35584 9.73478 5.24355 10 5.24355H12M21 12.7043V20.165C21 20.7303 20.7893 21.2725 20.4142 21.6723C20.0391 22.072 19.5304 22.2966 19 22.2966H5C4.46957 22.2966 3.96086 22.072 3.58579 21.6723C3.21071 21.2725 3 20.7303 3 20.165V10.5726C3 10.0073 3.21071 9.46509 3.58579 9.06534C3.96086 8.66558 4.46957 8.441 5 8.441M15 7.37518H21M18 4.17773V10.5726" stroke="#D2DAFF" stroke-width="2" stroke-linecap="round" stroke-linejoin="round"/>
</svg>
