<svg width="24" height="24" viewBox="0 0 24 24" fill="none" xmlns="http://www.w3.org/2000/svg">
<rect width="24" height="24" rx="12" fill="#646464"/>
<path d="M13.8394 17.525C13.8334 17.527 13.2804 17.711 12.8004 17.711C12.5354 17.711 12.4284 17.656 12.3944 17.632C12.2264 17.515 11.9144 17.296 12.4484 16.232L13.4484 14.238C14.0414 13.054 14.1294 11.909 13.6934 11.013C13.3374 10.28 12.6544 9.777 11.7734 9.597C11.4582 9.53248 11.1372 9.49998 10.8154 9.5C8.96641 9.5 7.72141 10.58 7.66941 10.626C7.58259 10.7025 7.525 10.8068 7.50646 10.921C7.48792 11.0352 7.50958 11.1524 7.56774 11.2524C7.62591 11.3525 7.71697 11.4292 7.82541 11.4696C7.93386 11.51 8.05296 11.5116 8.16241 11.474C8.16741 11.472 8.72141 11.287 9.20141 11.287C9.46441 11.287 9.57041 11.342 9.60341 11.365C9.77241 11.483 10.0854 11.705 9.55241 12.767L8.55241 14.762C7.95841 15.947 7.87141 17.092 8.30741 17.987C8.66341 18.72 9.34541 19.223 10.2284 19.403C10.5424 19.466 10.8644 19.5 11.1824 19.5C13.0324 19.5 14.2784 18.42 14.3304 18.374C14.4173 18.2977 14.475 18.1936 14.4938 18.0794C14.5125 17.9653 14.4911 17.8482 14.4332 17.7481C14.3753 17.6479 14.2845 17.571 14.1762 17.5303C14.0679 17.4896 13.9489 17.4878 13.8394 17.525Z" fill="white"/>
<path d="M13 8.50101C14.3807 8.50101 15.5 7.38172 15.5 6.00101C15.5 4.6203 14.3807 3.50101 13 3.50101C11.6193 3.50101 10.5 4.6203 10.5 6.00101C10.5 7.38172 11.6193 8.50101 13 8.50101Z" fill="white"/>
</svg>
