<svg width="15" height="14" viewBox="0 0 15 14" fill="none" xmlns="http://www.w3.org/2000/svg">
<path fill-rule="evenodd" clip-rule="evenodd" d="M4.7642 3.64406C4.25407 4.14681 3.86418 4.75837 3.62369 5.43303C3.3832 6.10769 3.29832 6.82798 3.3754 7.54006C3.39768 7.75117 3.33518 7.96248 3.20166 8.12752C3.06813 8.29255 2.87452 8.39778 2.66341 8.42006C2.45229 8.44233 2.24098 8.37984 2.07595 8.24631C1.91091 8.11278 1.80568 7.91917 1.78341 7.70806C1.68123 6.75687 1.79522 5.79488 2.11688 4.89392C2.43853 3.99295 2.95954 3.17628 3.64101 2.50486C6.14981 0.0312563 10.193 0.0728561 12.6722 2.58646C15.1522 5.10086 15.137 9.14486 12.629 11.6185C11.4679 12.7656 9.90901 13.4207 8.27701 13.4473C7.66022 13.4581 7.04509 13.38 6.4506 13.2153C6.34701 13.1894 6.24964 13.1431 6.16422 13.079C6.07881 13.015 6.00708 12.9345 5.95326 12.8423C5.89945 12.75 5.86464 12.648 5.85088 12.5421C5.83713 12.4362 5.8447 12.3287 5.87317 12.2258C5.90163 12.1229 5.9504 12.0267 6.01661 11.9429C6.08282 11.8592 6.16513 11.7895 6.25868 11.7381C6.35223 11.6866 6.45514 11.6544 6.56133 11.6433C6.66752 11.6323 6.77486 11.6426 6.87701 11.6737C7.3233 11.7974 7.78516 11.8558 8.24821 11.8473C9.46953 11.828 10.6363 11.3379 11.505 10.4793C13.3794 8.63126 13.397 5.60006 11.533 3.71046C9.66901 1.82006 6.6378 1.79606 4.7642 3.64406Z" fill="#3A3D4C"/>
<path fill-rule="evenodd" clip-rule="evenodd" d="M3.17409 8.35602C3.10423 8.43451 3.0196 8.49847 2.92502 8.54424C2.83044 8.59002 2.72777 8.61672 2.62287 8.62281C2.51798 8.6289 2.41291 8.61427 2.31367 8.57975C2.21443 8.54523 2.12296 8.4915 2.04449 8.42162L0.668485 7.19762C0.509992 7.05653 0.41404 6.85825 0.401738 6.64641C0.389435 6.43457 0.46179 6.22652 0.602885 6.06802C0.743981 5.90953 0.942258 5.81358 1.1541 5.80127C1.36594 5.78897 1.57399 5.86133 1.73249 6.00242L3.10849 7.22642C3.18697 7.29628 3.25093 7.38091 3.29671 7.47549C3.34248 7.57007 3.36918 7.67274 3.37527 7.77763C3.38136 7.88253 3.36673 7.9876 3.33221 8.08684C3.29769 8.18608 3.24396 8.27755 3.17409 8.35602Z" fill="#3A3D4C"/>
<path fill-rule="evenodd" clip-rule="evenodd" d="M1.93637 8.28005C1.9994 8.3641 2.07837 8.4349 2.16877 8.48843C2.25917 8.54195 2.35923 8.57715 2.46323 8.59201C2.56723 8.60687 2.67314 8.60109 2.77491 8.57502C2.87668 8.54895 2.97232 8.50308 3.05637 8.44005L4.65637 7.24005C4.82611 7.11275 4.93832 6.92323 4.96833 6.71319C4.99833 6.50315 4.94367 6.28979 4.81637 6.12005C4.68906 5.95031 4.49955 5.8381 4.2895 5.80809C4.07946 5.77808 3.86611 5.83274 3.69637 5.96005L2.09637 7.16005C2.01232 7.22308 1.94151 7.30205 1.88799 7.39245C1.83446 7.48285 1.79927 7.58291 1.78441 7.68691C1.76955 7.79091 1.77532 7.89682 1.8014 7.99859C1.82747 8.10036 1.87333 8.196 1.93637 8.28005ZM8.00037 3.80005C8.21254 3.80005 8.41602 3.88433 8.56605 4.03436C8.71608 4.18439 8.80037 4.38788 8.80037 4.60005V7.40005C8.80037 7.61222 8.71608 7.81571 8.56605 7.96573C8.41602 8.11576 8.21254 8.20005 8.00037 8.20005C7.78819 8.20005 7.58471 8.11576 7.43468 7.96573C7.28465 7.81571 7.20037 7.61222 7.20037 7.40005V4.60005C7.20037 4.38788 7.28465 4.18439 7.43468 4.03436C7.58471 3.88433 7.78819 3.80005 8.00037 3.80005Z" fill="#3A3D4C"/>
<path fill-rule="evenodd" clip-rule="evenodd" d="M11.2002 7.4001C11.2002 7.61227 11.1159 7.81575 10.9659 7.96578C10.8159 8.11581 10.6124 8.2001 10.4002 8.2001H8.0002C7.78802 8.2001 7.58454 8.11581 7.43451 7.96578C7.28448 7.81575 7.2002 7.61227 7.2002 7.4001C7.2002 7.18792 7.28448 6.98444 7.43451 6.83441C7.58454 6.68438 7.78802 6.6001 8.0002 6.6001H10.4002C10.6124 6.6001 10.8159 6.68438 10.9659 6.83441C11.1159 6.98444 11.2002 7.18792 11.2002 7.4001Z" fill="#3A3D4C"/>
</svg>
