<svg width="69" height="37" viewBox="0 0 69 37" fill="none" xmlns="http://www.w3.org/2000/svg">
<path d="M48.0962 15.1459C48.0962 16.0122 47.9343 16.7833 47.6107 17.4592C47.2965 18.1351 46.8538 18.711 46.2827 19.187C45.721 19.6535 45.0546 20.0057 44.2835 20.2437C43.5219 20.4817 42.6984 20.6007 41.8131 20.6007C41.1943 20.6007 40.6183 20.5484 40.0852 20.4436C39.5616 20.3389 39.0904 20.2104 38.6715 20.0581C38.2622 19.9058 37.9147 19.7487 37.6291 19.5869C37.353 19.425 37.1579 19.287 37.0436 19.1727C36.9389 19.0585 36.858 18.9157 36.8009 18.7444C36.7533 18.5635 36.7295 18.3255 36.7295 18.0304C36.7295 17.8209 36.739 17.6496 36.7581 17.5163C36.7771 17.3735 36.8057 17.2593 36.8437 17.1736C36.8818 17.0879 36.9294 17.0308 36.9865 17.0022C37.0436 16.9641 37.1103 16.9451 37.1864 16.9451C37.3197 16.9451 37.5054 17.026 37.7434 17.1879C37.9909 17.3497 38.305 17.5258 38.6858 17.7162C39.0666 17.9066 39.5236 18.0875 40.0567 18.2588C40.5993 18.4207 41.2229 18.5016 41.9273 18.5016C42.4604 18.5016 42.9459 18.4302 43.3839 18.2874C43.8313 18.1446 44.2121 17.9447 44.5262 17.6876C44.8499 17.4211 45.0974 17.0974 45.2688 16.7166C45.4401 16.3358 45.5258 15.9027 45.5258 15.4172C45.5258 14.8936 45.4068 14.4461 45.1688 14.0749C44.9308 13.7036 44.6167 13.3799 44.2264 13.1038C43.8361 12.8182 43.3886 12.5612 42.8841 12.3327C42.389 12.0947 41.8797 11.8567 41.3561 11.6187C40.8325 11.3712 40.3232 11.0999 39.8282 10.8048C39.3332 10.5097 38.8905 10.1622 38.5002 9.76238C38.1099 9.36255 37.791 8.89608 37.5434 8.36296C37.3054 7.82033 37.1864 7.17298 37.1864 6.42092C37.1864 5.64981 37.3245 4.96438 37.6006 4.36463C37.8862 3.75536 38.2765 3.24605 38.7715 2.8367C39.276 2.42734 39.871 2.11795 40.5565 1.90851C41.2514 1.68956 41.9987 1.58008 42.7984 1.58008C43.2077 1.58008 43.6171 1.61816 44.0264 1.69432C44.4453 1.76096 44.8356 1.85615 45.1974 1.97991C45.5687 2.09415 45.8971 2.22743 46.1827 2.37974C46.4683 2.52254 46.6539 2.64154 46.7396 2.73674C46.8348 2.82242 46.8967 2.89382 46.9252 2.95094C46.9538 2.99853 46.9776 3.06517 46.9966 3.15085C47.0157 3.22701 47.03 3.32221 47.0395 3.43645C47.049 3.55068 47.0538 3.69824 47.0538 3.87912C47.0538 4.05048 47.0442 4.20279 47.0252 4.33607C47.0157 4.46935 46.9966 4.58359 46.9681 4.67879C46.9395 4.76446 46.8967 4.8311 46.8396 4.8787C46.792 4.91678 46.7348 4.93582 46.6682 4.93582C46.5635 4.93582 46.3969 4.86918 46.1684 4.7359C45.9495 4.60263 45.6781 4.45507 45.3545 4.29323C45.0308 4.12188 44.6452 3.96956 44.1978 3.83628C43.7599 3.69348 43.2649 3.62208 42.7127 3.62208C42.1986 3.62208 41.7512 3.69348 41.3704 3.83628C40.9896 3.96956 40.6755 4.15043 40.4279 4.37891C40.1804 4.60739 39.9948 4.8787 39.871 5.19286C39.7473 5.50701 39.6854 5.84021 39.6854 6.19244C39.6854 6.70651 39.8044 7.14918 40.0424 7.52046C40.2804 7.89173 40.5945 8.22017 40.9849 8.50576C41.3847 8.79136 41.8369 9.05315 42.3414 9.29115C42.846 9.52914 43.3601 9.7719 43.8837 10.0194C44.4072 10.2574 44.9213 10.524 45.4259 10.8191C45.9304 11.1047 46.3778 11.4474 46.7682 11.8472C47.168 12.2375 47.4869 12.704 47.7249 13.2466C47.9724 13.7798 48.0962 14.4128 48.0962 15.1459Z" fill="white"/>
<path d="M54.0794 19.9581C54.0794 20.0343 54.0604 20.1009 54.0223 20.158C53.9842 20.2152 53.9176 20.2628 53.8224 20.3008C53.7272 20.3294 53.5986 20.3532 53.4368 20.3722C53.2845 20.4008 53.0893 20.4151 52.8513 20.4151C52.6229 20.4151 52.4277 20.4008 52.2659 20.3722C52.104 20.3532 51.9755 20.3294 51.8803 20.3008C51.7851 20.2628 51.7185 20.2152 51.6804 20.158C51.6423 20.1009 51.6233 20.0343 51.6233 19.9581V2.22267C51.6233 2.14651 51.6423 2.07987 51.6804 2.02275C51.728 1.96563 51.7994 1.92279 51.8946 1.89423C51.9993 1.85615 52.1278 1.82759 52.2801 1.80855C52.442 1.77999 52.6324 1.76572 52.8513 1.76572C53.0893 1.76572 53.2845 1.77999 53.4368 1.80855C53.5986 1.82759 53.7272 1.85615 53.8224 1.89423C53.9176 1.92279 53.9842 1.96563 54.0223 2.02275C54.0604 2.07987 54.0794 2.14651 54.0794 2.22267V19.9581Z" fill="white"/>
<path d="M68.9161 15.1459C68.9161 16.0122 68.7542 16.7833 68.4306 17.4592C68.1164 18.1351 67.6737 18.711 67.1025 19.187C66.5409 19.6535 65.8745 20.0057 65.1034 20.2437C64.3418 20.4817 63.5183 20.6007 62.633 20.6007C62.0142 20.6007 61.4382 20.5484 60.9051 20.4436C60.3815 20.3389 59.9103 20.2104 59.4914 20.0581C59.0821 19.9058 58.7346 19.7487 58.449 19.5869C58.1729 19.425 57.9778 19.287 57.8635 19.1727C57.7588 19.0585 57.6779 18.9157 57.6208 18.7444C57.5732 18.5635 57.5494 18.3255 57.5494 18.0304C57.5494 17.8209 57.5589 17.6496 57.5779 17.5163C57.597 17.3735 57.6255 17.2593 57.6636 17.1736C57.7017 17.0879 57.7493 17.0308 57.8064 17.0022C57.8635 16.9641 57.9302 16.9451 58.0063 16.9451C58.1396 16.9451 58.3252 17.026 58.5632 17.1879C58.8108 17.3497 59.1249 17.5258 59.5057 17.7162C59.8865 17.9066 60.3435 18.0875 60.8766 18.2588C61.4192 18.4207 62.0427 18.5016 62.7472 18.5016C63.2803 18.5016 63.7658 18.4302 64.2037 18.2874C64.6512 18.1446 65.032 17.9447 65.3461 17.6876C65.6698 17.4211 65.9173 17.0974 66.0887 16.7166C66.26 16.3358 66.3457 15.9027 66.3457 15.4172C66.3457 14.8936 66.2267 14.4461 65.9887 14.0749C65.7507 13.7036 65.4366 13.3799 65.0463 13.1038C64.6559 12.8182 64.2085 12.5612 63.704 12.3327C63.2089 12.0947 62.6996 11.8567 62.176 11.6187C61.6524 11.3712 61.1431 11.0999 60.6481 10.8048C60.1531 10.5097 59.7104 10.1622 59.3201 9.76238C58.9298 9.36255 58.6108 8.89608 58.3633 8.36296C58.1253 7.82033 58.0063 7.17298 58.0063 6.42092C58.0063 5.64981 58.1444 4.96438 58.4204 4.36463C58.706 3.75536 59.0964 3.24605 59.5914 2.8367C60.0959 2.42734 60.6909 2.11795 61.3764 1.90851C62.0713 1.68956 62.8186 1.58008 63.6183 1.58008C64.0276 1.58008 64.437 1.61816 64.8463 1.69432C65.2652 1.76096 65.6555 1.85615 66.0173 1.97991C66.3885 2.09415 66.717 2.22743 67.0026 2.37974C67.2882 2.52254 67.4738 2.64154 67.5595 2.73674C67.6547 2.82242 67.7166 2.89382 67.7451 2.95094C67.7737 2.99853 67.7975 3.06517 67.8165 3.15085C67.8356 3.22701 67.8498 3.32221 67.8594 3.43645C67.8689 3.55068 67.8736 3.69824 67.8736 3.87912C67.8736 4.05048 67.8641 4.20279 67.8451 4.33607C67.8356 4.46935 67.8165 4.58359 67.788 4.67879C67.7594 4.76446 67.7166 4.8311 67.6594 4.8787C67.6118 4.91678 67.5547 4.93582 67.4881 4.93582C67.3834 4.93582 67.2168 4.86918 66.9883 4.7359C66.7693 4.60263 66.498 4.45507 66.1744 4.29323C65.8507 4.12188 65.4651 3.96956 65.0177 3.83628C64.5798 3.69348 64.0847 3.62208 63.5326 3.62208C63.0185 3.62208 62.5711 3.69348 62.1903 3.83628C61.8095 3.96956 61.4954 4.15043 61.2478 4.37891C61.0003 4.60739 60.8147 4.8787 60.6909 5.19286C60.5672 5.50701 60.5053 5.84021 60.5053 6.19244C60.5053 6.70651 60.6243 7.14918 60.8623 7.52046C61.1003 7.89173 61.4144 8.22017 61.8047 8.50576C62.2046 8.79136 62.6568 9.05315 63.1613 9.29115C63.6659 9.52914 64.1799 9.7719 64.7035 10.0194C65.2271 10.2574 65.7412 10.524 66.2458 10.8191C66.7503 11.1047 67.1977 11.4474 67.5881 11.8472C67.9879 12.2375 68.3068 12.704 68.5448 13.2466C68.7923 13.7798 68.9161 14.4128 68.9161 15.1459Z" fill="white"/>
<path d="M0 35.9666V26.2173H3.29422C4.05906 26.2173 4.68426 26.3553 5.16982 26.6314C5.65856 26.9044 6.02035 27.2741 6.2552 27.7406C6.49005 28.2071 6.60747 28.7276 6.60747 29.302C6.60747 29.8765 6.49005 30.3985 6.2552 30.8682C6.02353 31.3379 5.66491 31.7124 5.17934 31.9917C4.69378 32.2678 4.07175 32.4058 3.31326 32.4058H0.952085V31.3585H3.27517C3.79882 31.3585 4.21932 31.2681 4.53669 31.0872C4.85405 30.9063 5.08414 30.6619 5.22695 30.3541C5.37293 30.0431 5.44593 29.6924 5.44593 29.302C5.44593 28.9117 5.37293 28.5626 5.22695 28.2547C5.08414 27.9469 4.85246 27.7057 4.53193 27.5312C4.21139 27.3534 3.78613 27.2646 3.25613 27.2646H1.18059V35.9666H0Z" fill="white"/>
<path d="M8.50926 35.9666V26.2173H11.8035C12.5651 26.2173 13.1903 26.3474 13.6791 26.6076C14.1678 26.8647 14.5296 27.2186 14.7645 27.6692C14.9993 28.1199 15.1167 28.6324 15.1167 29.2068C15.1167 29.7812 14.9993 30.2906 14.7645 30.7349C14.5296 31.1792 14.1694 31.5283 13.6838 31.7822C13.1983 32.0329 12.5778 32.1583 11.8225 32.1583H9.15668V31.092H11.7844C12.3049 31.092 12.7238 31.0158 13.0412 30.8635C13.3617 30.7111 13.5934 30.4953 13.7362 30.216C13.8822 29.9336 13.9552 29.5972 13.9552 29.2068C13.9552 28.8165 13.8822 28.4753 13.7362 28.1833C13.5902 27.8914 13.357 27.666 13.0364 27.5074C12.7159 27.3455 12.2922 27.2646 11.7654 27.2646H9.68985V35.9666H8.50926ZM13.0983 31.587L15.4976 35.9666H14.1266L11.7654 31.587H13.0983Z" fill="white"/>
<path d="M25.31 31.092C25.31 32.1202 25.1243 33.0088 24.753 33.7578C24.3817 34.5068 23.8723 35.0844 23.2249 35.4906C22.5775 35.8968 21.8381 36.0999 21.0066 36.0999C20.1751 36.0999 19.4356 35.8968 18.7882 35.4906C18.1408 35.0844 17.6314 34.5068 17.2601 33.7578C16.8888 33.0088 16.7031 32.1202 16.7031 31.092C16.7031 30.0637 16.8888 29.1751 17.2601 28.4261C17.6314 27.6771 18.1408 27.0995 18.7882 26.6933C19.4356 26.2871 20.1751 26.084 21.0066 26.084C21.8381 26.084 22.5775 26.2871 23.2249 26.6933C23.8723 27.0995 24.3817 27.6771 24.753 28.4261C25.1243 29.1751 25.31 30.0637 25.31 31.092ZM24.1675 31.092C24.1675 30.2478 24.0263 29.5353 23.7438 28.9545C23.4645 28.3737 23.0853 27.9342 22.6061 27.6359C22.13 27.3376 21.5969 27.1884 21.0066 27.1884C20.4163 27.1884 19.8815 27.3376 19.4023 27.6359C18.9263 27.9342 18.547 28.3737 18.2646 28.9545C17.9853 29.5353 17.8456 30.2478 17.8456 31.092C17.8456 31.9361 17.9853 32.6486 18.2646 33.2294C18.547 33.8102 18.9263 34.2497 19.4023 34.548C19.8815 34.8463 20.4163 34.9955 21.0066 34.9955C21.5969 34.9955 22.13 34.8463 22.6061 34.548C23.0853 34.2497 23.4645 33.8102 23.7438 33.2294C24.0263 32.6486 24.1675 31.9361 24.1675 31.092Z" fill="white"/>
<path d="M33.9597 29.2639C33.855 28.9434 33.7169 28.6562 33.5455 28.4023C33.3773 28.1452 33.1758 27.9263 32.941 27.7454C32.7093 27.5645 32.4459 27.4264 32.1507 27.3312C31.8556 27.236 31.5319 27.1884 31.1796 27.1884C30.602 27.1884 30.0768 27.3376 29.6039 27.6359C29.131 27.9342 28.755 28.3737 28.4757 28.9545C28.1964 29.5353 28.0568 30.2478 28.0568 31.092C28.0568 31.9361 28.198 32.6486 28.4804 33.2294C28.7629 33.8102 29.1453 34.2497 29.6277 34.548C30.1101 34.8463 30.6528 34.9955 31.2558 34.9955C31.8143 34.9955 32.3062 34.8765 32.7315 34.6385C33.1599 34.3973 33.4932 34.0577 33.7312 33.6197C33.9724 33.1786 34.093 32.6597 34.093 32.0631L34.4548 32.1392H31.5224V31.092H35.2355V32.1392C35.2355 32.9422 35.0641 33.6404 34.7214 34.2338C34.3818 34.8273 33.9121 35.2875 33.3123 35.6144C32.7156 35.9381 32.0301 36.0999 31.2558 36.0999C30.3925 36.0999 29.6341 35.8968 28.9803 35.4906C28.3297 35.0844 27.8219 34.5068 27.4569 33.7578C27.0952 33.0088 26.9143 32.1202 26.9143 31.092C26.9143 30.3208 27.0174 29.6273 27.2237 29.0116C27.4331 28.3928 27.7283 27.866 28.1091 27.4312C28.49 26.9964 28.9406 26.6632 29.4611 26.4315C29.9816 26.1998 30.5544 26.084 31.1796 26.084C31.6937 26.084 32.1729 26.1617 32.6172 26.3172C33.0647 26.4696 33.463 26.687 33.8121 26.9694C34.1644 27.2487 34.4579 27.5835 34.6928 27.9739C34.9276 28.3611 35.0895 28.7911 35.1784 29.2639H33.9597Z" fill="white"/>
<path d="M37.2575 35.9666V26.2173H40.5517C41.3134 26.2173 41.9386 26.3474 42.4273 26.6076C42.916 26.8647 43.2778 27.2186 43.5127 27.6692C43.7475 28.1199 43.8649 28.6324 43.8649 29.2068C43.8649 29.7812 43.7475 30.2906 43.5127 30.7349C43.2778 31.1792 42.9176 31.5283 42.4321 31.7822C41.9465 32.0329 41.3261 32.1583 40.5707 32.1583H37.9049V31.092H40.5326C41.0531 31.092 41.472 31.0158 41.7894 30.8635C42.1099 30.7111 42.3416 30.4953 42.4844 30.216C42.6304 29.9336 42.7034 29.5972 42.7034 29.2068C42.7034 28.8165 42.6304 28.4753 42.4844 28.1833C42.3384 27.8914 42.1052 27.666 41.7846 27.5074C41.4641 27.3455 41.0404 27.2646 40.5136 27.2646H38.4381V35.9666H37.2575ZM41.8465 31.587L44.2458 35.9666H42.8748L40.5136 31.587H41.8465Z" fill="white"/>
<path d="M45.8322 35.9666V26.2173H51.7161V27.2646H47.0128V30.5588H51.4114V31.6061H47.0128V34.9193H51.7923V35.9666H45.8322Z" fill="white"/>
<path d="M59.1757 28.6546C59.1185 28.1722 58.8869 27.7977 58.4806 27.5312C58.0744 27.2646 57.5762 27.1313 56.9859 27.1313C56.5543 27.1313 56.1766 27.2011 55.8529 27.3407C55.5324 27.4804 55.2816 27.6724 55.1007 27.9167C54.923 28.1611 54.8342 28.4388 54.8342 28.7498C54.8342 29.0101 54.896 29.2338 55.0198 29.421C55.1468 29.6051 55.3086 29.759 55.5054 29.8828C55.7021 30.0034 55.9084 30.1034 56.1242 30.1827C56.34 30.2589 56.5384 30.3208 56.7193 30.3684L57.7095 30.635C57.9633 30.7016 58.2458 30.7936 58.5568 30.9111C58.871 31.0285 59.1709 31.1887 59.4565 31.3919C59.7453 31.5918 59.9834 31.8489 60.1706 32.163C60.3578 32.4772 60.4515 32.8628 60.4515 33.3198C60.4515 33.8467 60.3134 34.3227 60.0373 34.748C59.7644 35.1732 59.3645 35.5112 58.8377 35.7619C58.314 36.0126 57.6777 36.138 56.9287 36.138C56.2305 36.138 55.626 36.0253 55.115 35.8C54.6072 35.5747 54.2074 35.2605 53.9154 34.8574C53.6266 34.4544 53.4632 33.9863 53.4251 33.4531H54.6437C54.6755 33.8213 54.7993 34.1259 55.0151 34.3671C55.234 34.6051 55.5101 34.7829 55.8434 34.9003C56.1798 35.0145 56.5416 35.0717 56.9287 35.0717C57.3794 35.0717 57.784 34.9987 58.1427 34.8527C58.5013 34.7035 58.7853 34.4972 58.9948 34.2338C59.2042 33.9672 59.309 33.6562 59.309 33.3008C59.309 32.9771 59.2185 32.7137 59.0376 32.5106C58.8567 32.3074 58.6187 32.1424 58.3235 32.0155C58.0284 31.8885 57.7095 31.7775 57.3667 31.6822L56.1671 31.3395C55.4054 31.1205 54.8024 30.8079 54.3581 30.4017C53.9138 29.9955 53.6917 29.4639 53.6917 28.8069C53.6917 28.2611 53.8392 27.785 54.1344 27.3788C54.4327 26.9694 54.8326 26.6521 55.334 26.4267C55.8386 26.1982 56.4019 26.084 57.024 26.084C57.6523 26.084 58.2109 26.1966 58.6996 26.422C59.1884 26.6441 59.5755 26.9488 59.8612 27.336C60.15 27.7232 60.3023 28.1627 60.3182 28.6546H59.1757Z" fill="white"/>
<path d="M67.7242 28.6546C67.6671 28.1722 67.4354 27.7977 67.0292 27.5312C66.623 27.2646 66.1247 27.1313 65.5344 27.1313C65.1028 27.1313 64.7251 27.2011 64.4014 27.3407C64.0809 27.4804 63.8302 27.6724 63.6493 27.9167C63.4716 28.1611 63.3827 28.4388 63.3827 28.7498C63.3827 29.0101 63.4446 29.2338 63.5684 29.421C63.6953 29.6051 63.8572 29.759 64.0539 29.8828C64.2507 30.0034 64.457 30.1034 64.6728 30.1827C64.8886 30.2589 65.0869 30.3208 65.2678 30.3684L66.258 30.635C66.5119 30.7016 66.7943 30.7936 67.1053 30.9111C67.4195 31.0285 67.7194 31.1887 68.0051 31.3919C68.2939 31.5918 68.5319 31.8489 68.7191 32.163C68.9064 32.4772 69 32.8628 69 33.3198C69 33.8467 68.8619 34.3227 68.5858 34.748C68.3129 35.1732 67.913 35.5112 67.3862 35.7619C66.8626 36.0126 66.2263 36.138 65.4773 36.138C64.7791 36.138 64.1745 36.0253 63.6636 35.8C63.1558 35.5747 62.7559 35.2605 62.4639 34.8574C62.1751 34.4544 62.0117 33.9863 61.9736 33.4531H63.1923C63.224 33.8213 63.3478 34.1259 63.5636 34.3671C63.7826 34.6051 64.0587 34.7829 64.3919 34.9003C64.7283 35.0145 65.0901 35.0717 65.4773 35.0717C65.9279 35.0717 66.3326 34.9987 66.6912 34.8527C67.0498 34.7035 67.3338 34.4972 67.5433 34.2338C67.7528 33.9672 67.8575 33.6562 67.8575 33.3008C67.8575 32.9771 67.767 32.7137 67.5862 32.5106C67.4053 32.3074 67.1672 32.1424 66.8721 32.0155C66.5769 31.8885 66.258 31.7775 65.9152 31.6822L64.7156 31.3395C63.9539 31.1205 63.351 30.8079 62.9067 30.4017C62.4623 29.9955 62.2402 29.4639 62.2402 28.8069C62.2402 28.2611 62.3878 27.785 62.6829 27.3788C62.9812 26.9694 63.3811 26.6521 63.8825 26.4267C64.3871 26.1982 64.9505 26.084 65.5725 26.084C66.2009 26.084 66.7594 26.1966 67.2482 26.422C67.7369 26.6441 68.1241 26.9488 68.4097 27.336C68.6985 27.7232 68.8508 28.1627 68.8667 28.6546H67.7242Z" fill="white"/>
<path d="M28.0068 18.3584H27.2471V22.0303H28.0068V18.3584Z" fill="#E31F1F"/>
<path d="M25.2441 17.4404H24.4844V22.0303H25.2441V17.4404Z" fill="#E31F1F"/>
<path d="M22.4917 16.5222H21.7319V22.03H22.4917V16.5222Z" fill="#E31F1F"/>
<path d="M19.6464 14.686H18.8867V22.0298H19.6464V14.686Z" fill="#E31F1F"/>
<path d="M16.976 12.8499H16.2163V22.0295H16.976V12.8499Z" fill="#E31F1F"/>
<path d="M14.6542 11.0137H13.8945V22.0293H14.6542V11.0137Z" fill="#E31F1F"/>
<path d="M11.9838 10.0957H11.2241V22.0293H11.9838V10.0957Z" fill="#E31F1F"/>
<path d="M9.31392 9.1792H8.5542V22.0308H9.31392V9.1792Z" fill="#E31F1F"/>
<path d="M6.64302 7.34302H5.8833V22.0305H6.64302V7.34302Z" fill="#E31F1F"/>
<path d="M4.06489 6.42334H3.30518V22.0288H4.06489V6.42334Z" fill="#E31F1F"/>
<path d="M1.3022 4.58887H0.54248V22.0303H1.3022V4.58887Z" fill="#E31F1F"/>
<path d="M3.43009 18.3601H1.58838V22.032H3.43009V18.3601Z" fill="#355CCA"/>
<path d="M6.01847 16.5239H4.17676V22.0317H6.01847V16.5239Z" fill="#355CCA"/>
<path d="M8.60685 14.6877H6.76514V22.0315H8.60685V14.6877Z" fill="#355CCA"/>
<path d="M11.3695 12.8516H9.52783V22.0313H11.3695V12.8516Z" fill="#355CCA"/>
<path d="M13.9579 11.0154H12.1162V22.031H13.9579V11.0154Z" fill="#355CCA"/>
<path d="M16.1977 9.1792H14.356V22.0308H16.1977V9.1792Z" fill="#355CCA"/>
<path d="M18.9604 7.34302H17.1187V22.0305H18.9604V7.34302Z" fill="#355CCA"/>
<path d="M21.7231 5.50854H19.8813V22.032H21.7231V5.50854Z" fill="#355CCA"/>
<path d="M24.4858 3.67236H22.644V22.0318H24.4858V3.67236Z" fill="#355CCA"/>
<path d="M27.2484 1.83618H25.4067V22.0315H27.2484V1.83618Z" fill="#355CCA"/>
<path d="M30.0102 0H28.1685V22.0313H30.0102V0Z" fill="#355CCA"/>
</svg>
