<svg width="62" height="35" viewBox="0 0 62 35" fill="none" xmlns="http://www.w3.org/2000/svg">
<path d="M39.5143 12.1895C39.5143 12.968 39.3689 13.6608 39.0781 14.2682C38.7958 14.8755 38.398 15.393 37.8848 15.8207C37.3801 16.2399 36.7813 16.5564 36.0884 16.7702C35.4041 16.9841 34.6642 17.091 33.8686 17.091C33.3126 17.091 32.7951 17.044 32.3161 16.9499C31.8456 16.8558 31.4222 16.7403 31.0458 16.6034C30.678 16.4666 30.3658 16.3254 30.1091 16.18C29.8611 16.0346 29.6857 15.9105 29.5831 15.8079C29.489 15.7052 29.4163 15.5769 29.3649 15.423C29.3222 15.2604 29.3008 15.0466 29.3008 14.7814C29.3008 14.5932 29.3093 14.4392 29.3264 14.3195C29.3436 14.1912 29.3692 14.0885 29.4034 14.0115C29.4376 13.9346 29.4804 13.8832 29.5317 13.8576C29.5831 13.8234 29.6429 13.8062 29.7114 13.8062C29.8311 13.8062 29.9979 13.879 30.2118 14.0244C30.4342 14.1698 30.7165 14.328 31.0586 14.4991C31.4008 14.6702 31.8114 14.8327 32.2904 14.9867C32.778 15.1321 33.3383 15.2048 33.9713 15.2048C34.4503 15.2048 34.8866 15.1407 35.2801 15.0124C35.6821 14.8841 36.0243 14.7044 36.3066 14.4735C36.5974 14.234 36.8198 13.9431 36.9738 13.601C37.1277 13.2588 37.2047 12.8696 37.2047 12.4333C37.2047 11.9628 37.0978 11.5608 36.884 11.2272C36.6701 10.8936 36.3878 10.6028 36.0371 10.3547C35.6864 10.0981 35.2843 9.86711 34.831 9.66181C34.3862 9.44796 33.9285 9.23411 33.4581 9.02025C32.9876 8.79785 32.5299 8.55406 32.0851 8.28888C31.6403 8.02371 31.2426 7.71148 30.8918 7.35221C30.5411 6.99294 30.2546 6.57379 30.0322 6.09477C29.8183 5.60718 29.7114 5.02551 29.7114 4.34974C29.7114 3.65686 29.8354 3.04097 30.0835 2.50206C30.3401 1.9546 30.6908 1.49696 31.1356 1.12914C31.589 0.761311 32.1236 0.483304 32.7395 0.295115C33.364 0.0983717 34.0355 0 34.754 0C35.1218 0 35.4896 0.0342162 35.8575 0.102649C36.2338 0.162527 36.5846 0.248068 36.9096 0.35927C37.2432 0.461919 37.5383 0.581676 37.795 0.718541C38.0516 0.846852 38.2184 0.953777 38.2954 1.03932C38.3809 1.1163 38.4365 1.18046 38.4622 1.23178C38.4878 1.27455 38.5092 1.33443 38.5263 1.41142C38.5434 1.47985 38.5563 1.56539 38.5648 1.66804C38.5734 1.77069 38.5777 1.90328 38.5777 2.0658C38.5777 2.21978 38.5691 2.35664 38.552 2.4764C38.5434 2.59616 38.5263 2.69881 38.5007 2.78435C38.475 2.86133 38.4365 2.92121 38.3852 2.96398C38.3424 2.9982 38.2911 3.01531 38.2312 3.01531C38.1371 3.01531 37.9874 2.95543 37.7821 2.83567C37.5854 2.71591 37.3416 2.58333 37.0508 2.43791C36.7599 2.28393 36.4135 2.14707 36.0114 2.02731C35.618 1.899 35.1731 1.83485 34.677 1.83485C34.2151 1.83485 33.813 1.899 33.4709 2.02731C33.1287 2.14707 32.8464 2.3096 32.624 2.51489C32.4016 2.72019 32.2348 2.96398 32.1236 3.24626C32.0124 3.52855 31.9568 3.82794 31.9568 4.14444C31.9568 4.60636 32.0637 5.00412 32.2776 5.33773C32.4914 5.67134 32.7737 5.96646 33.1244 6.22308C33.4837 6.4797 33.89 6.71494 34.3434 6.92879C34.7968 7.14264 35.2587 7.36077 35.7292 7.58317C36.1996 7.79702 36.6615 8.03654 37.1149 8.30171C37.5683 8.55834 37.9703 8.86628 38.321 9.22555C38.6803 9.57627 38.9669 9.99542 39.1807 10.483C39.4031 10.962 39.5143 11.5309 39.5143 12.1895Z" fill="white"/>
<path d="M44.8905 16.5136C44.8905 16.582 44.8734 16.6419 44.8392 16.6932C44.805 16.7446 44.7451 16.7873 44.6596 16.8216C44.574 16.8472 44.4586 16.8686 44.3132 16.8857C44.1763 16.9114 44.0009 16.9242 43.7871 16.9242C43.5818 16.9242 43.4064 16.9114 43.261 16.8857C43.1156 16.8686 43.0001 16.8472 42.9146 16.8216C42.829 16.7873 42.7691 16.7446 42.7349 16.6932C42.7007 16.6419 42.6836 16.582 42.6836 16.5136V0.577399C42.6836 0.508966 42.7007 0.449088 42.7349 0.397764C42.7777 0.346439 42.8419 0.307946 42.9274 0.282284C43.0215 0.248068 43.137 0.222406 43.2738 0.205297C43.4193 0.179635 43.5903 0.166804 43.7871 0.166804C44.0009 0.166804 44.1763 0.179635 44.3132 0.205297C44.4586 0.222406 44.574 0.248068 44.6596 0.282284C44.7451 0.307946 44.805 0.346439 44.8392 0.397764C44.8734 0.449088 44.8905 0.508966 44.8905 0.577399V16.5136Z" fill="white"/>
<path d="M58.222 12.1895C58.222 12.968 58.0766 13.6608 57.7858 14.2682C57.5035 14.8755 57.1057 15.393 56.5925 15.8207C56.0878 16.2399 55.489 16.5564 54.7961 16.7702C54.1118 16.9841 53.3719 17.091 52.5764 17.091C52.0204 17.091 51.5028 17.044 51.0238 16.9499C50.5533 16.8558 50.1299 16.7403 49.7535 16.6034C49.3857 16.4666 49.0735 16.3254 48.8169 16.18C48.5688 16.0346 48.3934 15.9105 48.2908 15.8079C48.1967 15.7052 48.124 15.5769 48.0727 15.423C48.0299 15.2604 48.0085 15.0466 48.0085 14.7814C48.0085 14.5932 48.0171 14.4392 48.0342 14.3195C48.0513 14.1912 48.0769 14.0885 48.1112 14.0115C48.1454 13.9346 48.1881 13.8832 48.2395 13.8576C48.2908 13.8234 48.3507 13.8062 48.4191 13.8062C48.5389 13.8062 48.7057 13.879 48.9195 14.0244C49.1419 14.1698 49.4242 14.328 49.7664 14.4991C50.1085 14.6702 50.5191 14.8327 50.9981 14.9867C51.4857 15.1321 52.046 15.2048 52.679 15.2048C53.158 15.2048 53.5943 15.1407 53.9878 15.0124C54.3898 14.8841 54.732 14.7044 55.0143 14.4735C55.3051 14.234 55.5275 13.9431 55.6815 13.601C55.8355 13.2588 55.9125 12.8696 55.9125 12.4333C55.9125 11.9628 55.8055 11.5608 55.5917 11.2272C55.3778 10.8936 55.0955 10.6028 54.7448 10.3547C54.3941 10.0981 53.9921 9.86711 53.5387 9.66181C53.0939 9.44796 52.6362 9.23411 52.1658 9.02025C51.6953 8.79785 51.2377 8.55406 50.7928 8.28888C50.348 8.02371 49.9503 7.71148 49.5996 7.35221C49.2488 6.99294 48.9623 6.57379 48.7399 6.09477C48.526 5.60718 48.4191 5.02551 48.4191 4.34974C48.4191 3.65686 48.5431 3.04097 48.7912 2.50206C49.0478 1.9546 49.3985 1.49696 49.8433 1.12914C50.2967 0.761311 50.8313 0.483304 51.4472 0.295115C52.0717 0.0983717 52.7432 0 53.4617 0C53.8295 0 54.1974 0.0342162 54.5652 0.102649C54.9416 0.162527 55.2923 0.248068 55.6173 0.35927C55.9509 0.461919 56.2461 0.581676 56.5027 0.718541C56.7593 0.846852 56.9261 0.953777 57.0031 1.03932C57.0886 1.1163 57.1442 1.18046 57.1699 1.23178C57.1956 1.27455 57.2169 1.33443 57.2341 1.41142C57.2512 1.47985 57.264 1.56539 57.2725 1.66804C57.2811 1.77069 57.2854 1.90328 57.2854 2.0658C57.2854 2.21978 57.2768 2.35664 57.2597 2.4764C57.2512 2.59616 57.2341 2.69881 57.2084 2.78435C57.1827 2.86133 57.1442 2.92121 57.0929 2.96398C57.0501 2.9982 56.9988 3.01531 56.9389 3.01531C56.8448 3.01531 56.6951 2.95543 56.4898 2.83567C56.2931 2.71591 56.0493 2.58333 55.7585 2.43791C55.4676 2.28393 55.1212 2.14707 54.7192 2.02731C54.3257 1.899 53.8809 1.83485 53.3847 1.83485C52.9228 1.83485 52.5208 1.899 52.1786 2.02731C51.8364 2.14707 51.5542 2.3096 51.3318 2.51489C51.1093 2.72019 50.9425 2.96398 50.8313 3.24626C50.7201 3.52855 50.6645 3.82794 50.6645 4.14444C50.6645 4.60636 50.7715 5.00412 50.9853 5.33773C51.1992 5.67134 51.4814 5.96646 51.8322 6.22308C52.1914 6.4797 52.5978 6.71494 53.0511 6.92879C53.5045 7.14264 53.9664 7.36077 54.4369 7.58317C54.9073 7.79702 55.3693 8.03654 55.8226 8.30171C56.276 8.55834 56.678 8.86628 57.0288 9.22555C57.388 9.57627 57.6746 9.99542 57.8884 10.483C58.1108 10.962 58.222 11.5309 58.222 12.1895Z" fill="white"/>
<path d="M0 33.915V25.1547H2.96002C3.64727 25.1547 4.20904 25.2787 4.64535 25.5268C5.0845 25.7721 5.40959 26.1043 5.62061 26.5235C5.83164 26.9427 5.93715 27.4103 5.93715 27.9265C5.93715 28.4426 5.83164 28.9117 5.62061 29.3338C5.41244 29.7558 5.09021 30.0923 4.6539 30.3433C4.2176 30.5914 3.65868 30.7154 2.97713 30.7154H0.855497V29.7744H2.94291C3.41343 29.7744 3.79128 29.6931 4.07644 29.5305C4.36161 29.368 4.56835 29.1484 4.69668 28.8718C4.82785 28.5924 4.89344 28.2772 4.89344 27.9265C4.89344 27.5757 4.82785 27.2621 4.69668 26.9854C4.56835 26.7088 4.36018 26.4921 4.07217 26.3353C3.78415 26.1756 3.40203 26.0957 2.9258 26.0957H1.06082V33.915H0Z" fill="white"/>
<path d="M7.646 33.915V25.1547H10.606C11.2904 25.1547 11.8522 25.2716 12.2914 25.5054C12.7305 25.7364 13.0556 26.0544 13.2666 26.4593C13.4776 26.8642 13.5832 27.3248 13.5832 27.8409C13.5832 28.3571 13.4776 28.8148 13.2666 29.214C13.0556 29.6132 12.7319 29.9269 12.2956 30.1551C11.8593 30.3803 11.3018 30.493 10.6231 30.493H8.22774V29.5348H10.5889C11.0566 29.5348 11.433 29.4664 11.7182 29.3295C12.0062 29.1926 12.2144 28.9987 12.3427 28.7478C12.4739 28.494 12.5394 28.1917 12.5394 27.8409C12.5394 27.4902 12.4739 27.1836 12.3427 26.9213C12.2115 26.6589 12.0019 26.4565 11.7139 26.3139C11.4259 26.1684 11.0452 26.0957 10.5718 26.0957H8.70682V33.915H7.646ZM11.7695 29.9797L13.9254 33.915H12.6934L10.5718 29.9797H11.7695Z" fill="white"/>
<path d="M22.7423 29.5348C22.7423 30.4588 22.5755 31.2572 22.2418 31.9302C21.9082 32.6032 21.4505 33.1222 20.8688 33.4872C20.287 33.8522 19.6226 34.0347 18.8755 34.0347C18.1283 34.0347 17.4639 33.8522 16.8822 33.4872C16.3004 33.1222 15.8427 32.6032 15.5091 31.9302C15.1754 31.2572 15.0086 30.4588 15.0086 29.5348C15.0086 28.6109 15.1754 27.8124 15.5091 27.1394C15.8427 26.4664 16.3004 25.9474 16.8822 25.5824C17.4639 25.2174 18.1283 25.0349 18.8755 25.0349C19.6226 25.0349 20.287 25.2174 20.8688 25.5824C21.4505 25.9474 21.9082 26.4664 22.2418 27.1394C22.5755 27.8124 22.7423 28.6109 22.7423 29.5348ZM21.7157 29.5348C21.7157 28.7763 21.5888 28.1361 21.335 27.6142C21.0841 27.0924 20.7433 26.6974 20.3127 26.4294C19.885 26.1613 19.4059 26.0273 18.8755 26.0273C18.3451 26.0273 17.8646 26.1613 17.434 26.4294C17.0062 26.6974 16.6654 27.0924 16.4116 27.6142C16.1607 28.1361 16.0352 28.7763 16.0352 29.5348C16.0352 30.2934 16.1607 30.9336 16.4116 31.4554C16.6654 31.9773 17.0062 32.3722 17.434 32.6403C17.8646 32.9083 18.3451 33.0424 18.8755 33.0424C19.4059 33.0424 19.885 32.9083 20.3127 32.6403C20.7433 32.3722 21.0841 31.9773 21.335 31.4554C21.5888 30.9336 21.7157 30.2934 21.7157 29.5348Z" fill="white"/>
<path d="M30.5145 27.8923C30.4204 27.6043 30.2964 27.3462 30.1424 27.118C29.9912 26.8871 29.8101 26.6903 29.5991 26.5278C29.391 26.3652 29.1543 26.2412 28.8891 26.1556C28.6239 26.0701 28.333 26.0273 28.0165 26.0273C27.4975 26.0273 27.0255 26.1613 26.6006 26.4294C26.1757 26.6974 25.8378 27.0924 25.5868 27.6142C25.3359 28.1361 25.2104 28.7763 25.2104 29.5348C25.2104 30.2934 25.3373 30.9336 25.5911 31.4554C25.8449 31.9773 26.1885 32.3722 26.622 32.6403C27.0554 32.9083 27.5431 33.0424 28.0849 33.0424C28.5868 33.0424 29.0288 32.9354 29.4109 32.7216C29.7959 32.5048 30.0953 32.1997 30.3092 31.8062C30.5259 31.4098 30.6343 30.9435 30.6343 30.4074L30.9594 30.4759H28.3244V29.5348H31.6609V30.4759C31.6609 31.1973 31.5069 31.8247 31.1989 32.358C30.8938 32.8912 30.4717 33.3047 29.9328 33.5984C29.3967 33.8893 28.7807 34.0347 28.0849 34.0347C27.3092 34.0347 26.6277 33.8522 26.0403 33.4872C25.4557 33.1222 24.9994 32.6032 24.6715 31.9302C24.3464 31.2572 24.1838 30.4588 24.1838 29.5348C24.1838 28.8419 24.2765 28.2188 24.4619 27.6656C24.6501 27.1095 24.9153 26.6361 25.2575 26.2454C25.5997 25.8548 26.0046 25.5553 26.4723 25.3472C26.94 25.139 27.4547 25.0349 28.0165 25.0349C28.4784 25.0349 28.909 25.1048 29.3083 25.2445C29.7103 25.3814 30.0682 25.5767 30.3819 25.8305C30.6984 26.0815 30.9622 26.3823 31.1732 26.7331C31.3843 27.081 31.5297 27.4674 31.6095 27.8923H30.5145Z" fill="white"/>
<path d="M33.4777 33.915V25.1547H36.4377C37.1221 25.1547 37.6839 25.2716 38.1231 25.5054C38.5622 25.7364 38.8873 26.0544 39.0983 26.4593C39.3094 26.8642 39.4149 27.3248 39.4149 27.8409C39.4149 28.3571 39.3094 28.8148 39.0983 29.214C38.8873 29.6132 38.5637 29.9269 38.1274 30.1551C37.6911 30.3803 37.1336 30.493 36.4549 30.493H34.0595V29.5348H36.4206C36.8883 29.5348 37.2647 29.4664 37.5499 29.3295C37.8379 29.1926 38.0461 28.9987 38.1744 28.7478C38.3056 28.494 38.3712 28.1917 38.3712 27.8409C38.3712 27.4902 38.3056 27.1836 38.1744 26.9213C38.0432 26.6589 37.8336 26.4565 37.5456 26.3139C37.2576 26.1684 36.8769 26.0957 36.4035 26.0957H34.5385V33.915H33.4777ZM37.6012 29.9797L39.7571 33.915H38.5252L36.4035 29.9797H37.6012Z" fill="white"/>
<path d="M41.1826 33.915V25.1547H46.4695V26.0957H42.2434V29.0557H46.1958V29.9968H42.2434V32.9739H46.538V33.915H41.1826Z" fill="white"/>
<path d="M53.1723 27.3448C53.121 26.9113 52.9128 26.5748 52.5478 26.3353C52.1828 26.0957 51.7351 25.976 51.2047 25.976C50.8169 25.976 50.4775 26.0387 50.1867 26.1642C49.8986 26.2896 49.6734 26.4622 49.5108 26.6817C49.3511 26.9013 49.2713 27.1508 49.2713 27.4303C49.2713 27.6641 49.3269 27.8652 49.4381 28.0334C49.5522 28.1988 49.6976 28.3371 49.8744 28.4483C50.0512 28.5567 50.2366 28.6465 50.4305 28.7178C50.6244 28.7863 50.8026 28.8419 50.9652 28.8846L51.8549 29.1242C52.083 29.1841 52.3368 29.2668 52.6163 29.3723C52.8986 29.4778 53.1681 29.6218 53.4247 29.8043C53.6842 29.984 53.8981 30.2149 54.0663 30.4973C54.2346 30.7796 54.3187 31.126 54.3187 31.5367C54.3187 32.0101 54.1947 32.4378 53.9466 32.8199C53.7013 33.2021 53.342 33.5058 52.8686 33.731C52.3981 33.9563 51.8264 34.069 51.1534 34.069C50.526 34.069 49.9828 33.9677 49.5236 33.7653C49.0674 33.5628 48.7081 33.2805 48.4457 32.9183C48.1862 32.5562 48.0394 32.1355 48.0051 31.6565H49.1002C49.1287 31.9872 49.2399 32.261 49.4338 32.4777C49.6306 32.6916 49.8787 32.8513 50.1781 32.9568C50.4804 33.0595 50.8055 33.1108 51.1534 33.1108C51.5583 33.1108 51.9219 33.0452 52.2441 32.914C52.5664 32.78 52.8216 32.5947 53.0098 32.358C53.198 32.1184 53.2921 31.839 53.2921 31.5196C53.2921 31.2287 53.2108 30.992 53.0483 30.8095C52.8857 30.627 52.6719 30.4787 52.4067 30.3647C52.1415 30.2506 51.8549 30.1508 51.5469 30.0652L50.469 29.7573C49.7846 29.5605 49.2428 29.2796 48.8435 28.9146C48.4443 28.5496 48.2447 28.0719 48.2447 27.4816C48.2447 26.9911 48.3773 26.5634 48.6425 26.1984C48.9105 25.8305 49.2698 25.5454 49.7204 25.3429C50.1738 25.1376 50.68 25.0349 51.2389 25.0349C51.8035 25.0349 52.3054 25.1361 52.7446 25.3386C53.1837 25.5382 53.5316 25.812 53.7883 26.1599C54.0478 26.5078 54.1847 26.9027 54.1989 27.3448H53.1723Z" fill="white"/>
<path d="M60.8536 27.3448C60.8023 26.9113 60.5941 26.5748 60.2291 26.3353C59.8641 26.0957 59.4164 25.976 58.886 25.976C58.4982 25.976 58.1588 26.0387 57.868 26.1642C57.5799 26.2896 57.3547 26.4622 57.1921 26.6817C57.0324 26.9013 56.9526 27.1508 56.9526 27.4303C56.9526 27.6641 57.0082 27.8652 57.1194 28.0334C57.2335 28.1988 57.3789 28.3371 57.5557 28.4483C57.7325 28.5567 57.9179 28.6465 58.1118 28.7178C58.3057 28.7863 58.4839 28.8419 58.6465 28.8846L59.5362 29.1242C59.7643 29.1841 60.0181 29.2668 60.2976 29.3723C60.5799 29.4778 60.8494 29.6218 61.106 29.8043C61.3655 29.984 61.5794 30.2149 61.7476 30.4973C61.9159 30.7796 62 31.126 62 31.5367C62 32.0101 61.8759 32.4378 61.6279 32.8199C61.3826 33.2021 61.0233 33.5058 60.5499 33.731C60.0794 33.9563 59.5076 34.069 58.8347 34.069C58.2073 34.069 57.6641 33.9677 57.2049 33.7653C56.7487 33.5628 56.3894 33.2805 56.127 32.9183C55.8675 32.5562 55.7206 32.1355 55.6864 31.6565H56.7815C56.81 31.9872 56.9212 32.261 57.1151 32.4777C57.3119 32.6916 57.56 32.8513 57.8594 32.9568C58.1617 33.0595 58.4868 33.1108 58.8347 33.1108C59.2396 33.1108 59.6032 33.0452 59.9254 32.914C60.2477 32.78 60.5029 32.5947 60.6911 32.358C60.8793 32.1184 60.9734 31.839 60.9734 31.5196C60.9734 31.2287 60.8921 30.992 60.7296 30.8095C60.567 30.627 60.3532 30.4787 60.088 30.3647C59.8228 30.2506 59.5362 30.1508 59.2282 30.0652L58.1503 29.7573C57.4659 29.5605 56.924 29.2796 56.5248 28.9146C56.1256 28.5496 55.926 28.0719 55.926 27.4816C55.926 26.9911 56.0586 26.5634 56.3238 26.1984C56.5918 25.8305 56.9511 25.5454 57.4017 25.3429C57.8551 25.1376 58.3613 25.0349 58.9202 25.0349C59.4848 25.0349 59.9867 25.1361 60.4259 25.3386C60.865 25.5382 61.2129 25.812 61.4696 26.1599C61.7291 26.5078 61.866 26.9027 61.8802 27.3448H60.8536Z" fill="white"/>
<path d="M25.1651 18.1589H24.4824V21.4583H25.1651V18.1589Z" fill="#E31F1F"/>
<path d="M22.6826 17.3342H22V21.4584H22.6826V17.3342Z" fill="#E31F1F"/>
<path d="M20.21 16.5098H19.5273V21.4588H20.21V16.5098Z" fill="#E31F1F"/>
<path d="M17.6533 14.8604H16.9707V21.4591H17.6533V14.8604Z" fill="#E31F1F"/>
<path d="M15.2539 13.21H14.5713V21.4584H15.2539V13.21Z" fill="#E31F1F"/>
<path d="M13.167 11.5605H12.4844V21.4587H13.167V11.5605Z" fill="#E31F1F"/>
<path d="M10.7686 10.7358H10.0859V21.4588H10.7686V10.7358Z" fill="#E31F1F"/>
<path d="M8.36917 9.91138H7.68652V21.4592H8.36917V9.91138Z" fill="#E31F1F"/>
<path d="M5.96975 8.26074H5.28711V21.4582H5.96975V8.26074Z" fill="#E31F1F"/>
<path d="M3.65139 7.43604H2.96875V21.4584H3.65139V7.43604Z" fill="#E31F1F"/>
<path d="M1.16995 5.78687H0.487305V21.4589H1.16995V5.78687Z" fill="#E31F1F"/>
<path d="M3.08261 18.1599H1.42773V21.4593H3.08261V18.1599Z" fill="#355CCA"/>
<path d="M5.4078 16.5095H3.75293V21.4586H5.4078V16.5095Z" fill="#355CCA"/>
<path d="M7.73397 14.8613H6.0791V21.4601H7.73397V14.8613Z" fill="#355CCA"/>
<path d="M10.2154 13.2109H8.56055V21.4594H10.2154V13.2109Z" fill="#355CCA"/>
<path d="M12.5416 11.5603H10.8867V21.4584H12.5416V11.5603Z" fill="#355CCA"/>
<path d="M14.5543 9.91113H12.8994V21.4589H14.5543V9.91113Z" fill="#355CCA"/>
<path d="M17.0357 8.26172H15.3809V21.4592H17.0357V8.26172Z" fill="#355CCA"/>
<path d="M19.5182 6.61255H17.8633V21.4597H19.5182V6.61255Z" fill="#355CCA"/>
<path d="M22.0006 4.96313H20.3457V21.46H22.0006V4.96313Z" fill="#355CCA"/>
<path d="M24.483 3.31274H22.8281V21.4593H24.483V3.31274Z" fill="#355CCA"/>
<path d="M26.9654 1.66333H25.3105V21.4596H26.9654V1.66333Z" fill="#355CCA"/>
</svg>
