<svg width="24" height="24" viewBox="0 0 24 24" fill="none" xmlns="http://www.w3.org/2000/svg">
<g clip-path="url(#clip0_3470_61238)">
<g clip-path="url(#clip1_3470_61238)">
<circle cx="12" cy="11.6104" r="12" fill="#121623"/>
<path d="M13.8389 17.1354C13.8329 17.1374 13.2799 17.3214 12.7999 17.3214C12.5349 17.3214 12.4279 17.2664 12.3939 17.2424C12.2259 17.1254 11.9139 16.9064 12.4479 15.8424L13.4479 13.8484C14.0409 12.6644 14.1289 11.5194 13.6929 10.6234C13.3369 9.89035 12.6539 9.38735 11.7729 9.20735C11.4577 9.14283 11.1367 9.11033 10.8149 9.11035C8.96592 9.11035 7.72092 10.1904 7.66892 10.2364C7.5821 10.3129 7.52451 10.4171 7.50597 10.5314C7.48743 10.6456 7.50909 10.7627 7.56725 10.8628C7.62542 10.9628 7.71648 11.0396 7.82493 11.08C7.93337 11.1204 8.05247 11.1219 8.16192 11.0844C8.16692 11.0824 8.72092 10.8974 9.20092 10.8974C9.46392 10.8974 9.56992 10.9524 9.60292 10.9754C9.77192 11.0934 10.0849 11.3154 9.55192 12.3774L8.55192 14.3724C7.95792 15.5574 7.87092 16.7024 8.30692 17.5974C8.66292 18.3304 9.34492 18.8334 10.2279 19.0134C10.5419 19.0764 10.8639 19.1104 11.1819 19.1104C13.0319 19.1104 14.2779 18.0304 14.3299 17.9844C14.4168 17.908 14.4746 17.8039 14.4933 17.6898C14.5121 17.5756 14.4906 17.4585 14.4327 17.3584C14.3748 17.2583 14.284 17.1813 14.1757 17.1407C14.0675 17.1 13.9484 17.0981 13.8389 17.1354Z" fill="white"/>
<path d="M13 8.11133C14.3807 8.11133 15.5 6.99204 15.5 5.61133C15.5 4.23062 14.3807 3.11133 13 3.11133C11.6193 3.11133 10.5 4.23062 10.5 5.61133C10.5 6.99204 11.6193 8.11133 13 8.11133Z" fill="white"/>
</g>
</g>
<defs>
<clipPath id="clip0_3470_61238">
<rect width="24" height="24" fill="white"/>
</clipPath>
<clipPath id="clip1_3470_61238">
<rect width="24" height="24" fill="white" transform="translate(0 -0.166992)"/>
</clipPath>
</defs>
</svg>
