<svg width="20" height="21" viewBox="0 0 20 21" fill="none" xmlns="http://www.w3.org/2000/svg">
<path d="M7.77778 0H1.11111C0.816426 0 0.533811 0.117497 0.325437 0.326642C0.117063 0.535788 0 0.81945 0 1.11523V7.80658C0 8.10236 0.117063 8.38602 0.325437 8.59517C0.533811 8.80431 0.816426 8.92181 1.11111 8.92181H7.77778C8.07246 8.92181 8.35508 8.80431 8.56345 8.59517C8.77183 8.38602 8.88889 8.10236 8.88889 7.80658V1.11523C8.88889 0.81945 8.77183 0.535788 8.56345 0.326642C8.35508 0.117497 8.07246 0 7.77778 0ZM6.66667 6.69136H2.22222V2.23045H6.66667V6.69136ZM18.8889 0H12.2222C11.9275 0 11.6449 0.117497 11.4365 0.326642C11.2282 0.535788 11.1111 0.81945 11.1111 1.11523V7.80658C11.1111 8.10236 11.2282 8.38602 11.4365 8.59517C11.6449 8.80431 11.9275 8.92181 12.2222 8.92181H18.8889C19.1836 8.92181 19.4662 8.80431 19.6746 8.59517C19.8829 8.38602 20 8.10236 20 7.80658V1.11523C20 0.81945 19.8829 0.535788 19.6746 0.326642C19.4662 0.117497 19.1836 0 18.8889 0ZM17.7778 6.69136H13.3333V2.23045H17.7778V6.69136ZM7.77778 11.1523H1.11111C0.816426 11.1523 0.533811 11.2698 0.325437 11.4789C0.117063 11.6881 0 11.9717 0 12.2675V18.9588C0 19.2546 0.117063 19.5383 0.325437 19.7474C0.533811 19.9566 0.816426 20.0741 1.11111 20.0741H7.77778C8.07246 20.0741 8.35508 19.9566 8.56345 19.7474C8.77183 19.5383 8.88889 19.2546 8.88889 18.9588V12.2675C8.88889 11.9717 8.77183 11.6881 8.56345 11.4789C8.35508 11.2698 8.07246 11.1523 7.77778 11.1523ZM6.66667 17.8436H2.22222V13.3827H6.66667V17.8436ZM15.5556 11.1523C13.1044 11.1523 11.1111 13.153 11.1111 15.6132C11.1111 18.0734 13.1044 20.0741 15.5556 20.0741C18.0067 20.0741 20 18.0734 20 15.6132C20 13.153 18.0067 11.1523 15.5556 11.1523ZM15.5556 17.8436C14.33 17.8436 13.3333 16.8433 13.3333 15.6132C13.3333 14.3831 14.33 13.3827 15.5556 13.3827C16.7811 13.3827 17.7778 14.3831 17.7778 15.6132C17.7778 16.8433 16.7811 17.8436 15.5556 17.8436Z" fill="#3A3D4C"/>
</svg>
