<svg width="12" height="7" viewBox="0 0 12 7" fill="none" xmlns="http://www.w3.org/2000/svg">
<path d="M6.0002 0.024951C6.13353 0.024951 6.26253 0.0499516 6.3872 0.0999517C6.51253 0.149952 6.61686 0.216618 6.7002 0.299952L11.3002 4.89995C11.4835 5.08328 11.5752 5.31662 11.5752 5.59995C11.5752 5.88329 11.4835 6.11662 11.3002 6.29995C11.1169 6.48328 10.8835 6.57495 10.6002 6.57495C10.3169 6.57495 10.0835 6.48328 9.9002 6.29995L6.0002 2.39995L2.1002 6.29995C1.91686 6.48328 1.68353 6.57495 1.4002 6.57495C1.11686 6.57495 0.88353 6.48328 0.700196 6.29995C0.516863 6.11662 0.425195 5.88329 0.425195 5.59995C0.425195 5.31662 0.516863 5.08328 0.700196 4.89995L5.3002 0.299952C5.4002 0.199952 5.50853 0.129285 5.6252 0.0879517C5.74186 0.0459518 5.86686 0.024951 6.0002 0.024951Z" fill="#3A3D4C"/>
</svg>
